<svg version="1.1" id="Layer_1" xmlns="http://www.w3.org/2000/svg" xmlns:xlink="http://www.w3.org/1999/xlink" x="0px" y="0px"
	 viewBox="0 0 495 495" style="enable-background:new 0 0 495 495;" xml:space="preserve">
<g>
	<path style="fill:#C70024;" d="M124.403,209.842v27.139h246.195v-27.139c0-33.084,26.916-60,60-60c7.011,0,13.74,1.22,20,3.44
		v-24.119H44.403v24.119c6.26-2.22,12.989-3.44,20-3.44C97.487,149.842,124.403,176.758,124.403,209.842z"/>
	<path style="fill:#B3D8F4;" d="M124.403,236.981v27.138c0,33.084-26.916,60-60,60c-7.011,0-13.74-1.22-20-3.44V495h135.398V236.981
		H124.403z"/>
	<rect x="179.801" y="236.981" style="fill:#96C8EF;" width="135.398" height="258.019"/>
	<path style="fill:#B3D8F4;" d="M370.597,264.119v-27.138h-55.398V495h135.398V320.679c-6.26,2.22-12.989,3.44-20,3.44
		C397.513,324.119,370.597,297.203,370.597,264.119z"/>
	<path style="fill:#FF5023;" d="M247.5,40H110.606c-8.601,28.415-35.02,49.164-66.204,49.164h-20v40H247.5L247.5,40z"/>
	<path style="fill:#FF0C38;" d="M247.5,129.164h223.097v-40h-20c-31.185,0-57.604-20.75-66.204-49.164H247.5L247.5,129.164z"/>
	<rect x="93.566" style="fill:#A5001E;" width="307.867" height="40"/>
	<path style="fill:#FF5023;" d="M64.403,149.842c-7.011,0-13.74,1.22-20,3.44c-23.278,8.256-40,30.487-40,56.56v54.277
		c0,26.073,16.722,48.303,40,56.56c6.26,2.22,12.989,3.44,20,3.44V149.842z"/>
	<path style="fill:#FF0C38;" d="M64.403,149.842v174.277c33.084,0,60-26.916,60-60v-54.277
		C124.403,176.758,97.487,149.842,64.403,149.842z"/>
	<path style="fill:#FF5023;" d="M370.597,209.842v54.277c0,33.084,26.916,60,60,60V149.842
		C397.513,149.842,370.597,176.758,370.597,209.842z"/>
	<path style="fill:#FF0C38;" d="M450.597,153.283c-6.26-2.22-12.989-3.44-20-3.44v174.277c7.011,0,13.74-1.22,20-3.44
		c23.278-8.256,40-30.487,40-56.56v-54.277C490.597,183.77,473.875,161.539,450.597,153.283z"/>
</g>
<g>
</g>
<g>
</g>
<g>
</g>
<g>
</g>
<g>
</g>
<g>
</g>
<g>
</g>
<g>
</g>
<g>
</g>
<g>
</g>
<g>
</g>
<g>
</g>
<g>
</g>
<g>
</g>
<g>
</g>
</svg>
