<svg height="512pt" viewBox="-84 0 512 512.00063" width="512pt" xmlns="http://www.w3.org/2000/svg"><path d="m320.359375 260.585938-119.910156 234.265624c-11.554688 22.75-44.320313 22.980469-56.089844 0l-119.902344-234.265624c-67.855469-113.285157 13.238281-260.585938 147.945313-260.585938 5.726562 0 11.347656.261719 16.875.785156 124.269531 11.671875 196.199218 151.078125 131.082031 259.800782zm0 0" fill="#1ab975"/><path d="m320.359375 260.585938-119.910156 234.265624c-2.726563 5.371094-6.636719 9.476563-11.171875 12.332032-4.503906-2.855469-8.410156-6.960938-11.160156-12.332032l-119.902344-234.265624c-64.96875-108.46875 6.617187-248.121094 131.0625-259.800782 124.269531 11.671875 196.199218 151.078125 131.082031 259.800782zm0 0" fill="#35e298"/><path d="m311.144531 172.710938c0 76.617187-62.105469 138.722656-138.722656 138.722656-76.613281 0-138.71875-62.105469-138.71875-138.722656 0-76.613282 62.105469-138.722657 138.71875-138.722657 76.617187 0 138.722656 62.109375 138.722656 138.722657zm0 0" fill="#fb5858"/><path d="m246.894531 195.8125v93.9375c-.597656.375-1.203125.75-1.808593 1.128906-10.417969 6.40625-21.347657 11.273438-32.539063 14.660156v-109.726562zm0 0" fill="#b9b9be"/><path d="m132.300781 164.039062v141.46875c-12.046875-3.636718-23.617187-8.902343-34.347656-15.714843v-125.753907zm0 0" fill="#b9b9be"/><path d="m156.351562 170.664062c0 24.585938-12.296874 45.378907-29.203124 52.179688-3.804688 1.539062-7.847657 2.363281-12.027344 2.363281-22.769532 0-41.21875-24.417969-41.21875-54.542969s18.449218-67.785156 41.21875-67.785156c4.179687 0 8.222656 1.277344 12.027344 3.542969 16.90625 10.042969 29.203124 39.65625 29.203124 64.242187zm0 0" fill="#d2d2d7"/><path d="m156.351562 170.664062c0 24.585938-12.296874 45.378907-29.203124 52.179688-16.90625-6.8125-29.195313-27.59375-29.195313-52.179688 0-24.585937 12.289063-54.199218 29.195313-64.242187 16.90625 10.042969 29.203124 39.65625 29.203124 64.242187zm0 0" fill="#ebebf0"/><path d="m270.945312 102.878906v74.753906 9.507813c0 12.769531-5.796874 24.179687-14.910156 31.753906 0 0 0 0-.007812 0-7.136719 5.914063-16.300782 9.46875-26.300782 9.46875-22.820312 0-41.230468-18.507812-41.230468-41.222656v-84.261719c0-4.40625 3.632812-7.960937 8.074218-7.835937 1.410157.042969 2.726563.480469 3.847657 1.210937 2.265625 1.453125 3.75 4.078125 3.75 6.949219v65.570313c0 2.441406.992187 4.660156 2.589843 6.265624 1.609376 1.601563 3.824219 2.59375 6.269532 2.59375 4.890625 0 8.863281-3.972656 8.863281-8.859374v-65.894532c0-4.40625 3.636719-7.972656 8.074219-7.835937 4.285156.125 7.597656 3.867187 7.597656 8.160156v65.570313c0 2.441406.992188 4.660156 2.589844 6.265624 1.601562 1.601563 3.816406 2.59375 6.261718 2.59375 4.890626 0 8.859376-3.972656 8.859376-8.859374v-65.570313c0-4.28125 3.300781-8.023437 7.597656-8.160156 4.441406-.125 8.074218 3.429687 8.074218 7.835937zm0 0" fill="#d2d2d7"/><path d="m270.945312 102.878906v74.753906 9.507813c0 12.769531-5.796874 24.179687-14.910156 31.753906 0 0 0 0-.007812 0-2.238282.460938-4.515625.699219-6.835938.699219-29.695312 0-53.78125-38.835938-53.78125-86.757812 0-13.070313 1.789063-25.472657 5.007813-36.582032 2.265625 1.453125 3.75 4.078125 3.75 6.949219v65.570313c0 2.441406.992187 4.660156 2.589843 6.265624 1.609376 1.601563 3.824219 2.59375 6.269532 2.59375 4.890625 0 8.863281-3.972656 8.863281-8.859374v-65.894532c0-4.40625 3.636719-7.972656 8.074219-7.835937 4.285156.125 7.597656 3.867187 7.597656 8.160156v65.570313c0 2.441406.992188 4.660156 2.589844 6.265624 1.601562 1.601563 3.816406 2.59375 6.261718 2.59375 4.890626 0 8.859376-3.972656 8.859376-8.859374v-65.570313c0-4.28125 3.300781-8.023437 7.597656-8.160156 4.441406-.125 8.074218 3.429687 8.074218 7.835937zm0 0" fill="#ebebf0"/></svg>